TITLE ""
FILE "Disc6Track47.mp3" MP3
  TRACK 01 AUDIO
    TITLE "Disc6Track47_01"
    INDEX 01 00:00:00
  TRACK 02 AUDIO
    TITLE "Disc6Track47_02"
    INDEX 01 00:01:02
  TRACK 03 AUDIO
    TITLE "Disc6Track47_03"
    INDEX 01 00:03:30
  TRACK 04 AUDIO
    TITLE "Disc6Track47_04"
    INDEX 01 00:04:45
  TRACK 05 AUDIO
    TITLE "Disc6Track47_05"
    INDEX 01 00:09:19
  TRACK 06 AUDIO
    TITLE "Disc6Track47_06"
    INDEX 01 00:09:48
  TRACK 07 AUDIO
    TITLE "Disc6Track47_07"
    INDEX 01 00:11:00
  TRACK 08 AUDIO
    TITLE "Disc6Track47_08"
    INDEX 01 00:12:08
  TRACK 09 AUDIO
    TITLE "Disc6Track47_09"
    INDEX 01 00:13:36
  TRACK 10 AUDIO
    TITLE "Disc6Track47_10"
    INDEX 01 00:13:64
  TRACK 11 AUDIO
    TITLE "Disc6Track47_11"
    INDEX 01 00:15:08
  TRACK 12 AUDIO
    TITLE "Disc6Track47_12"
    INDEX 01 00:17:21
  TRACK 13 AUDIO
    TITLE "Disc6Track47_13"
    INDEX 01 00:18:40
  TRACK 14 AUDIO
    TITLE "Disc6Track47_14"
    INDEX 01 00:22:57
  TRACK 15 AUDIO
    TITLE "Disc6Track47_15"
    INDEX 01 00:23:13
  TRACK 16 AUDIO
    TITLE "Disc6Track47_16"
    INDEX 01 00:24:42
  TRACK 17 AUDIO
    TITLE "Disc6Track47_17"
    INDEX 01 00:25:65
  TRACK 18 AUDIO
    TITLE "Disc6Track47_18"
    INDEX 01 00:27:21
  TRACK 19 AUDIO
    TITLE "Disc6Track47_19"
    INDEX 01 00:27:50
  TRACK 20 AUDIO
    TITLE "Disc6Track47_20"
    INDEX 01 00:29:10
  TRACK 21 AUDIO
    TITLE "Disc6Track47_21"
    INDEX 01 00:33:22
  TRACK 22 AUDIO
    TITLE "Disc6Track47_22"
    INDEX 01 00:34:52
  TRACK 23 AUDIO
    TITLE "Disc6Track47_23"
    INDEX 01 00:39:59
  TRACK 24 AUDIO
    TITLE "Disc6Track47_24"
    INDEX 01 00:40:06
  TRACK 25 AUDIO
    TITLE "Disc6Track47_25"
    INDEX 01 00:41:33
  TRACK 26 AUDIO
    TITLE "Disc6Track47_26"
    INDEX 01 00:43:41
  TRACK 27 AUDIO
    TITLE "Disc6Track47_27"
    INDEX 01 00:44:66
  TRACK 28 AUDIO
    TITLE "Disc6Track47_28"
    INDEX 01 00:46:55
  TRACK 29 AUDIO
    TITLE "Disc6Track47_29"
    INDEX 01 00:47:12
  TRACK 30 AUDIO
    TITLE "Disc6Track47_30"
    INDEX 01 00:48:33
  TRACK 31 AUDIO
    TITLE "Disc6Track47_31"
    INDEX 01 00:51:10
  TRACK 32 AUDIO
    TITLE "Disc6Track47_32"
    INDEX 01 00:52:33
  TRACK 33 AUDIO
    TITLE "Disc6Track47_33"
    INDEX 01 00:54:26
  TRACK 34 AUDIO
    TITLE "Disc6Track47_34"
    INDEX 01 00:54:57
  TRACK 35 AUDIO
    TITLE "Disc6Track47_35"
    INDEX 01 00:56:03
  TRACK 36 AUDIO
    TITLE "Disc6Track47_36"
    INDEX 01 00:59:07
  TRACK 37 AUDIO
    TITLE "Disc6Track47_37"
    INDEX 01 01:00:28
  TRACK 38 AUDIO
    TITLE "Disc6Track47_38"
    INDEX 01 01:05:45
  TRACK 39 AUDIO
    TITLE "Disc6Track47_39"
    INDEX 01 01:05:74
  TRACK 40 AUDIO
    TITLE "Disc6Track47_40"
    INDEX 01 01:07:32
  TRACK 41 AUDIO
    TITLE "Disc6Track47_41"
    INDEX 01 01:09:33
  TRACK 42 AUDIO
    TITLE "Disc6Track47_42"
    INDEX 01 01:10:70
  TRACK 43 AUDIO
    TITLE "Disc6Track47_43"
    INDEX 01 01:11:34
  TRACK 44 AUDIO
    TITLE "Disc6Track47_44"
    INDEX 01 01:13:64
  TRACK 45 AUDIO
    TITLE "Disc6Track47_45"
    INDEX 01 01:19:67
  TRACK 46 AUDIO
    TITLE "Disc6Track47_46"
    INDEX 01 01:22:22
  TRACK 47 AUDIO
    TITLE "Disc6Track47_47"
    INDEX 01 01:26:47
  TRACK 48 AUDIO
    TITLE "Disc6Track47_48"
    INDEX 01 01:27:04
  TRACK 49 AUDIO
    TITLE "Disc6Track47_49"
    INDEX 01 01:28:30
  TRACK 50 AUDIO
    TITLE "Disc6Track47_50"
    INDEX 01 01:29:55
  TRACK 51 AUDIO
    TITLE "Disc6Track47_51"
    INDEX 01 01:31:07
  TRACK 52 AUDIO
    TITLE "Disc6Track47_52"
    INDEX 01 01:37:55
  TRACK 53 AUDIO
    TITLE "Disc6Track47_53"
    INDEX 01 01:38:11
  TRACK 54 AUDIO
    TITLE "Disc6Track47_54"
    INDEX 01 01:39:38
  TRACK 55 AUDIO
    TITLE "Disc6Track47_55"
    INDEX 01 01:41:27
  TRACK 56 AUDIO
    TITLE "Disc6Track47_56"
    INDEX 01 01:42:56
  TRACK 57 AUDIO
    TITLE "Disc6Track47_57"
    INDEX 01 01:45:74
  TRACK 58 AUDIO
    TITLE "Disc6Track47_58"
    INDEX 01 01:46:32
  TRACK 59 AUDIO
    TITLE "Disc6Track47_59"
    INDEX 01 01:47:39
  TRACK 60 AUDIO
    TITLE "Disc6Track47_60"
    INDEX 01 01:49:40
  TRACK 61 AUDIO
    TITLE "Disc6Track47_61"
    INDEX 01 01:50:46
  TRACK 62 AUDIO
    TITLE "Disc6Track47_62"
    INDEX 01 01:52:49
  TRACK 63 AUDIO
    TITLE "Disc6Track47_63"
    INDEX 01 01:53:03
  TRACK 64 AUDIO
    TITLE "Disc6Track47_64"
    INDEX 01 01:54:34
  TRACK 65 AUDIO
    TITLE "Disc6Track47_65"
    INDEX 01 01:56:58
  TRACK 66 AUDIO
    TITLE "Disc6Track47_66"
    INDEX 01 01:58:10
  TRACK 67 AUDIO
    TITLE "Disc6Track47_67"
    INDEX 01 02:04:63
